<?xml version="1.0" encoding="UTF-8"?>
<svg fill="currentColor" version="1.1" xmlns="http://www.w3.org/2000/svg" width="206" height="167">
<path d="M0 0 C15.51 0 31.02 0 47 0 C47.33 22.11 47.66 44.22 48 67 C52.62 58.75 57.24 50.5 62 42 C65.48677038 35.88036219 68.97523506 29.76236685 72.47949219 23.65283203 C75.24147473 18.83399737 77.99505127 14.01035806 80.75 9.1875 C83.34875 4.6396875 83.34875 4.6396875 86 0 C93.59 0 101.18 0 109 0 C109.33 22.11 109.66 44.22 110 67 C113.96 59.74 117.92 52.48 122 45 C127.875 34.625 127.875 34.625 130.91015625 29.49609375 C133.21253615 25.53885554 135.16991077 21.51737468 137.05859375 17.34765625 C137.87191162 15.68452393 137.87191162 15.68452393 138.70166016 13.98779297 C139.74586936 11.84841436 140.72110948 9.6734293 141.61083984 7.46533203 C143.11328125 4.51171875 143.11328125 4.51171875 148 0 C155.59 0 163.18 0 171 0 C171 29.37 171 58.74 171 89 C179.25 89 187.5 89 196 89 C196 95.93 196 102.86 196 110 C180.16 110 164.32 110 148 110 C147.67 88.88 147.34 67.76 147 46 C135.20022042 65.90825214 135.20022042 65.90825214 123.5 85.875 C121.7675 88.77925781 121.7675 88.77925781 120 91.7421875 C118.1427928 94.8983073 116.50701439 97.99275657 115.125 101.3828125 C113.5 105 113.5 105 109 110 C101.74 110 94.48 110 87 110 C86.67 88.55 86.34 67.1 86 45 C74.38428741 64.29419411 74.38428741 64.29419411 63.0625 83.75 C49.35867513 107.64132487 49.35867513 107.64132487 47 110 C39.74 110 32.48 110 25 110 C25 80.63 25 51.26 25 21 C16.75 21 8.5 21 0 21 C0 14.07 0 7.14 0 0 Z " fill="currentColor" transform="translate(6,51)"/>
<path d="M0 0 C15.51 0 31.02 0 47 0 C47.60163214 16.63624281 47.60163214 16.63624281 47.73242188 23.91992188 C47.82093645 28.82541682 47.92363326 33.72658595 48.1315918 38.62866211 C49.05992088 61.11241598 46.88470185 76.46936955 33.88235474 95.24276733 C31.45182466 98.80295543 29.29111491 102.49638747 27.13536072 106.22737122 C26.76069168 106.81233871 26.38602264 107.39730621 26 108 C25.67 108 25.34 108 25 108 C25 79.29 25 50.58 25 21 C16.75 21 8.5 21 0 21 C0 14.07 0 7.14 0 0 Z " fill="currentColor" transform="translate(6,51)"/>
<path d="M0 0 C15.84 0 31.68 0 48 0 C48 6.93 48 13.86 48 21 C32.16 21 16.32 21 0 21 C0 14.07 0 7.14 0 0 Z " fill="currentColor" transform="translate(154,140)"/>
<path d="M0 0 C3.4956754 3.91939363 4.89064426 7.67987047 5.4375 12.875 C4.85155621 18.24615142 3.07575526 21.64715505 -1 25.125 C-5.98181996 28.83486593 -9.83119313 28.94418692 -15.9375 28.3125 C-20.4652962 26.97377306 -23.06698415 24.64776847 -25.375 20.5625 C-27.43017102 15.76710096 -28.07559863 11.45186196 -26.2421875 6.39453125 C-23.78168233 1.54588871 -20.28771493 -1.53825787 -15.05859375 -3.33203125 C-9.88002778 -4.19989405 -4.46620985 -2.56569502 0 0 Z " fill="currentColor" transform="translate(50.9375,9.6875)"/>
</svg>
